- 
http://www.Speed.Cd 
       
http://www.Speed.Cd       the fast  and The Hottest Private Tracker on the net

(((--Registration will be open on june every weekend--)))

Please Seed back to make the speed Faster!!!

------------------nfo--------------------------
-[img]http://img714.imageshack.us/img714/3459/romww.jpg[/img]

[color=blue][size=5][b]The.Romantics.2010.BDRip.XVID.AC3.HQ.Hive-CM8[/b][/size][/color]


[b]Thx Hive


CM8 Doing It Right The First Time :D


Source Bluray

Video: 720x400 @bitrate 1800 2pass
Audio: English DTS to AC3 5.1 @448
Sample: yes included
Subs: yes english in srt /subs[/b]


[url]http://www.imdb.com/title/tt1403988/[/url]


General
Complete name                    : The.Romantics.2010.BDRip.XVID.AC3.HQ.Hive-CM8.avi
Format                           : AVI
Format/Info                      : Audio Video Interleave
File size                        : 1.52 GiB
Duration                         : 1h 36mn
Overall bit rate                 : 2 258 Kbps
Writing application              : Nandub v1.0rc2
Writing library                  : Nandub build 1853/release

Video
ID                               : 0
Format                           : MPEG-4 Visual
Format profile                   : Advanced Simple@L5
Format settings, BVOP            : 1
Format settings, QPel            : Yes
Format settings, GMC             : No warppoints
Format settings, Matrix          : Default (H.263)
Muxing mode                      : Packed bitstream
Codec ID                         : XVID
Codec ID/Hint                    : XviD
Duration                         : 1h 36mn
Bit rate                         : 1 800 Kbps
Width                            : 720 pixels
Height                           : 400 pixels
Display aspect ratio             : 16:9
Frame rate                       : 24.000 fps
Color space                      : YUV
Chroma subsampling               : 4:2:0
Bit depth                        : 8 bits
Scan type                        : Progressive
Compression mode                 : Lossy
Bits/(Pixel*Frame)               : 0.260
Stream size                      : 1.21 GiB (80%)
Writing library                  : XviD 1.2.1 (UTC 2008-12-04)

Audio
ID                               : 1
Format                           : AC-3
Format/Info                      : Audio Coding 3
Mode extension                   : CM (complete main)
Codec ID                         : 2000
Duration                         : 1h 36mn
Bit rate mode                    : Constant
Bit rate                         : 448 Kbps
Channel(s)                       : 6 channels
Channel positions                : Front: L C R, Side: L R, LFE
Sampling rate                    : 48.0 KHz
Bit depth                        : 16 bits
Compression mode                 : Lossy
Stream size                      : 309 MiB (20%)
Alignment                        : Split accross interleaves
Interleave, duration             : 42 ms (1.00 video frame)
Interleave, preload duration     : 500 ms


Katie Holmes     ...    Laura Rosen 
Josh Duhamel     ...    Tom McDevon 
Anna Paquin      ...    Lila Hayes 
Malin Akerman    ...    Tripler 
Adam Brody       ...    Jake 
Dianna Agron     ...    Minnow Hayes 
Candice Bergen   ...    Augusta Hayes 
Elijah Wood      ...    Chip Hayes


Seven close friends reunite for the wedding of two of their friends.
Problems arise because the bride and the maid of honor have had a
long rivalry over the groom. 


[img]http://img263.imageshack.us/img263/6616/92406292.png[/img]
[img]http://img269.imageshack.us/img269/5406/roron.png[/img]
[img]http://img836.imageshack.us/img836/4844/rororo.png[/img]
[img]http://img834.imageshack.us/img834/1449/rorororo.png[/img]
[img]http://img821.imageshack.us/img821/65/rororororo.png[/img]
[img]http://img560.imageshack.us/img560/4567/rorororororo.png[/img]


cover + label:

[img]http://img29.imageshack.us/img29/5734/theromantics2010wsr4fro.jpg[/img]

[img]http://img690.imageshack.us/img690/1258/1297835506.jpg[/img]



Greetz

ViSiON,SANTi,MAGNET,THC,T0XiC,iNK,LKRG,IMAGiNE,WBZ,FLAWL3SS,NOVA
D2U,Vik,OneTwo,Rapeseed,SAFC,goldadvance,MEMORY100,KaN1vE,Unevano,
Pinnz,Wayne,Mr Hive and all P2P groups 
Great Work Guys :D

FYS

CM8@hushmail.com